<?xml version="1.0" standalone="no"?>
<!DOCTYPE svg PUBLIC "-//W3C//DTD SVG 20010904//EN"
 "http://www.w3.org/TR/2001/REC-SVG-20010904/DTD/svg10.dtd">
<svg version="1.0" xmlns="http://www.w3.org/2000/svg"
 width="1024.000000pt" height="1024.000000pt" viewBox="0 0 1024.000000 1024.000000"
 preserveAspectRatio="xMidYMid meet">
<metadata>
Created by potrace 1.14, written by Peter Selinger 2001-2017
</metadata>
<g transform="translate(0.000000,1024.000000) scale(0.100000,-0.100000)"
fill="#000000" stroke="none">
<path d="M4077 9300 c-27 -5 -70 -11 -95 -15 -26 -3 -87 -12 -137 -20 -49 -8
-166 -26 -260 -40 -200 -31 -222 -34 -255 -40 -14 -2 -45 -7 -70 -10 -25 -4
-99 -15 -165 -25 -66 -10 -136 -21 -155 -24 -19 -3 -114 -17 -210 -31 -206
-30 -268 -46 -332 -87 -63 -40 -95 -77 -221 -264 -60 -87 -222 -326 -360 -530
-145 -213 -260 -392 -270 -422 -12 -32 -20 -91 -23 -159 -3 -59 -7 -119 -9
-133 -2 -14 -4 -42 -4 -63 l-1 -39 -142 6 c-436 18 -499 7 -611 -106 -128
-129 -150 -316 -57 -483 15 -27 44 -81 65 -120 21 -38 48 -88 60 -110 12 -22
39 -71 60 -110 102 -190 133 -242 170 -279 22 -23 224 -178 448 -344 224 -167
407 -307 407 -311 0 -4 -72 -38 -159 -75 -186 -79 -235 -107 -283 -167 -30
-37 -406 -563 -681 -952 -119 -168 -111 -110 -113 -784 -1 -335 3 -605 8 -635
14 -77 50 -142 131 -239 40 -47 173 -207 297 -355 123 -148 227 -271 230 -274
3 -3 39 -45 80 -95 41 -49 77 -92 80 -95 3 -3 38 -44 78 -92 40 -48 91 -100
115 -116 34 -23 314 -152 952 -437 66 -30 110 -43 170 -50 28 -4 61 -9 75 -11
14 -2 111 -15 215 -29 105 -14 201 -28 215 -30 41 -6 102 -14 150 -20 25 -3
52 -8 60 -10 8 -2 42 -6 75 -10 33 -3 89 -10 125 -16 36 -5 115 -16 175 -24
61 -9 128 -18 150 -21 234 -34 372 -49 430 -48 39 1 246 5 460 8 215 4 451 9
525 11 74 2 308 6 520 10 212 3 446 8 520 10 74 2 299 7 500 10 514 8 584 12
650 39 47 19 202 121 655 431 50 34 167 114 260 177 626 425 673 459 712 501
44 49 80 127 92 198 5 30 13 117 16 194 4 77 8 158 10 180 2 22 6 96 10 165 3
69 8 148 10 175 3 28 7 104 10 170 3 66 7 149 10 185 6 78 13 203 20 365 3 66
8 138 10 160 10 93 20 329 20 450 l0 131 -52 104 c-28 58 -108 213 -178 345
l-125 240 5 95 c11 195 15 262 21 344 16 243 1 327 -76 424 -32 41 -431 369
-602 494 -72 54 -149 80 -233 80 -54 1 -490 -50 -665 -77 -14 -2 -50 -6 -80
-10 -198 -23 -268 -37 -325 -65 -66 -32 -70 -36 -281 -236 -82 -78 -165 -156
-184 -174 -19 -18 -103 -98 -187 -177 -84 -80 -174 -165 -200 -190 l-48 -44
-205 5 c-113 3 -236 5 -273 6 l-68 0 34 43 c47 57 69 104 106 227 35 113 79
254 222 705 50 160 97 313 104 342 16 70 11 167 -13 228 -10 28 -117 259 -236
515 -120 256 -268 573 -329 704 -129 278 -163 323 -284 378 -232 105 -1065
461 -1098 468 -47 11 -101 11 -168 0z"/>
</g>
</svg>
